<?xml version="1.0" encoding="UTF-8"?>
<svg xmlns="http://www.w3.org/2000/svg" xmlns:xlink="http://www.w3.org/1999/xlink" viewBox="0 0 1600 1600" width="1600" height="1600" preserveAspectRatio="xMidYMid meet" style="width: 100%; height: 100%; transform: translate3d(0px, 0px, 0px); content-visibility: visible;">
    <defs>
        <clipPath id="__lottie_element_1520">
            <rect width="1600" height="1600" x="0" y="0"></rect>
        </clipPath>
        <linearGradient id="__lottie_element_1527" spreadMethod="pad" gradientUnits="userSpaceOnUse" x1="247.3769989013672" y1="375.697998046875" x2="-102.80599975585938" y2="-494.81298828125"><stop offset="0%" stop-color="rgb(255,255,255)"></stop><stop offset="26%" stop-color="rgb(198,216,247)"></stop><stop offset="52%" stop-color="rgb(140,177,238)"></stop><stop offset="76%" stop-color="rgb(109,154,233)"></stop><stop offset="100%" stop-color="rgb(79,130,227)"></stop></linearGradient><g id="__lottie_element_1523"><g transform="matrix(-0.6933350563049316,0,0,0.6933350563049316,1697.30224609375,70.28343963623047)" opacity="1" style="display: block;"><g opacity="1" transform="matrix(1,0,0,1,1466.574951171875,1128.4539794921875)"><path fill="rgb(103,212,251)" fill-opacity="1" d=" M-406.697998046875,-240.67599487304688 C-406.697998046875,-240.67599487304688 406.697998046875,-240.67599487304688 406.697998046875,-240.67599487304688 C406.697998046875,-240.67599487304688 406.697998046875,240.67599487304688 406.697998046875,240.67599487304688 C406.697998046875,240.67599487304688 -406.697998046875,240.67599487304688 -406.697998046875,240.67599487304688 C-406.697998046875,240.67599487304688 -406.697998046875,-240.67599487304688 -406.697998046875,-240.67599487304688z"></path></g></g></g><mask id="__lottie_element_1523_1"><use xlink:href="#__lottie_element_1523"></use></mask><linearGradient id="__lottie_element_1539" spreadMethod="pad" gradientUnits="userSpaceOnUse" x1="-113.14399719238281" y1="-217.05299377441406" x2="106.04199981689453" y2="249.3769989013672"><stop offset="0%" stop-color="rgb(99,173,143)" stop-opacity="1"></stop><stop offset="50%" stop-color="rgb(99,173,143)" stop-opacity="0.5"></stop><stop offset="100%" stop-color="rgb(99,173,143)" stop-opacity="0"></stop></linearGradient><linearGradient id="__lottie_element_1544" spreadMethod="pad" gradientUnits="userSpaceOnUse" x1="2.3259999752044678" y1="-130.3090057373047" x2="2.6070001125335693" y2="188.14700317382812"><stop offset="0%" stop-color="rgb(99,173,143)"></stop><stop offset="50%" stop-color="rgb(113,192,141)"></stop><stop offset="100%" stop-color="rgb(128,210,138)"></stop></linearGradient><linearGradient id="__lottie_element_1545" spreadMethod="pad" gradientUnits="userSpaceOnUse" x1="-752.6640014648438" y1="2.8420000076293945" x2="970.6069946289062" y2="2.4860000610351562"><stop offset="0%" stop-color="rgb(99,173,143)"></stop><stop offset="50%" stop-color="rgb(113,192,141)"></stop><stop offset="100%" stop-color="rgb(128,210,138)"></stop></linearGradient><linearGradient id="__lottie_element_1566" spreadMethod="pad" gradientUnits="userSpaceOnUse" x1="76.75" y1="-9.5" x2="-75.25" y2="9.5"><stop offset="0%" stop-color="rgb(79,130,227)"></stop><stop offset="50%" stop-color="rgb(165,192,241)"></stop><stop offset="100%" stop-color="rgb(251,253,255)"></stop></linearGradient><linearGradient id="__lottie_element_1570" spreadMethod="pad" gradientUnits="userSpaceOnUse" x1="-12.25" y1="72.5" x2="14" y2="-71.25"><stop offset="0%" stop-color="rgb(79,130,227)" stop-opacity="1"></stop><stop offset="50%" stop-color="rgb(165,192,241)" stop-opacity="0.9950000047683716"></stop><stop offset="100%" stop-color="rgb(251,253,255)" stop-opacity="0.9900000095367432"></stop></linearGradient><linearGradient id="__lottie_element_1574" spreadMethod="pad" gradientUnits="userSpaceOnUse" x1="-53.75" y1="-49" x2="59.25" y2="59.75"><stop offset="0%" stop-color="rgb(79,130,227)"></stop><stop offset="50%" stop-color="rgb(165,192,241)"></stop><stop offset="100%" stop-color="rgb(251,253,255)"></stop></linearGradient><linearGradient id="__lottie_element_1578" spreadMethod="pad" gradientUnits="userSpaceOnUse" x1="6" y1="-52.25" x2="-14.25" y2="71.25"><stop offset="0%" stop-color="rgb(79,130,227)"></stop><stop offset="50%" stop-color="rgb(167,193,241)"></stop><stop offset="100%" stop-color="rgb(255,255,255)"></stop></linearGradient><linearGradient id="__lottie_element_1582" spreadMethod="pad" gradientUnits="userSpaceOnUse" x1="-4033.550048828125" y1="-1532.656982421875" x2="-4137.94677734375" y2="-1644.251953125"><stop offset="0%" stop-color="rgb(79,130,227)"></stop><stop offset="50%" stop-color="rgb(167,193,241)"></stop><stop offset="100%" stop-color="rgb(255,255,255)"></stop></linearGradient><linearGradient id="__lottie_element_1586" spreadMethod="pad" gradientUnits="userSpaceOnUse" x1="60.5" y1="-61.25" x2="-62.5" y2="61.75"><stop offset="0%" stop-color="rgb(79,130,227)"></stop><stop offset="50%" stop-color="rgb(167,193,241)"></stop><stop offset="100%" stop-color="rgb(255,255,255)"></stop></linearGradient><linearGradient id="__lottie_element_1590" spreadMethod="pad" gradientUnits="userSpaceOnUse" x1="76.75" y1="-9.5" x2="-75.25" y2="9.5"><stop offset="0%" stop-color="rgb(99,173,143)"></stop><stop offset="50%" stop-color="rgb(175,213,199)"></stop><stop offset="100%" stop-color="rgb(251,253,255)"></stop></linearGradient><linearGradient id="__lottie_element_1594" spreadMethod="pad" gradientUnits="userSpaceOnUse" x1="-12.25" y1="72.5" x2="14" y2="-71.25"><stop offset="0%" stop-color="rgb(99,173,143)" stop-opacity="1"></stop><stop offset="50%" stop-color="rgb(175,213,199)" stop-opacity="0.9950000047683716"></stop><stop offset="100%" stop-color="rgb(251,253,255)" stop-opacity="0.9900000095367432"></stop></linearGradient><linearGradient id="__lottie_element_1598" spreadMethod="pad" gradientUnits="userSpaceOnUse" x1="-53.75" y1="-49" x2="59.25" y2="59.75"><stop offset="0%" stop-color="rgb(99,173,143)"></stop><stop offset="50%" stop-color="rgb(175,213,199)"></stop><stop offset="100%" stop-color="rgb(251,253,255)"></stop></linearGradient><linearGradient id="__lottie_element_1602" spreadMethod="pad" gradientUnits="userSpaceOnUse" x1="6" y1="-52.25" x2="-14.25" y2="71.25"><stop offset="0%" stop-color="rgb(99,173,143)"></stop><stop offset="50%" stop-color="rgb(177,214,199)"></stop><stop offset="100%" stop-color="rgb(255,255,255)"></stop></linearGradient><linearGradient id="__lottie_element_1606" spreadMethod="pad" gradientUnits="userSpaceOnUse" x1="-4033.550048828125" y1="-1532.656982421875" x2="-4137.94677734375" y2="-1644.251953125"><stop offset="0%" stop-color="rgb(99,173,143)"></stop><stop offset="50%" stop-color="rgb(177,214,199)"></stop><stop offset="100%" stop-color="rgb(255,255,255)"></stop></linearGradient><linearGradient id="__lottie_element_1610" spreadMethod="pad" gradientUnits="userSpaceOnUse" x1="60.5" y1="-61.25" x2="-62.5" y2="61.75"><stop offset="0%" stop-color="rgb(99,173,143)"></stop><stop offset="50%" stop-color="rgb(177,214,199)"></stop><stop offset="100%" stop-color="rgb(255,255,255)"></stop></linearGradient><linearGradient id="__lottie_element_1614" spreadMethod="pad" gradientUnits="userSpaceOnUse" x1="-603.1119995117188" y1="-1200.1639404296875" x2="358.2330017089844" y2="839.010009765625"><stop offset="0%" stop-color="rgb(255,255,255)" stop-opacity="1"></stop><stop offset="26%" stop-color="rgb(240,240,240)" stop-opacity="0.75"></stop><stop offset="53%" stop-color="rgb(225,225,225)" stop-opacity="0.5"></stop><stop offset="76%" stop-color="rgb(240,240,240)" stop-opacity="0.3499999940395355"></stop><stop offset="100%" stop-color="rgb(255,255,255)" stop-opacity="0.20000000298023224"></stop></linearGradient><linearGradient id="__lottie_element_1621" spreadMethod="pad" gradientUnits="userSpaceOnUse" x1="-879" y1="552" x2="822.5079956054688" y2="545.5579833984375"><stop offset="0%" stop-color="rgb(79,130,227)" stop-opacity="0"></stop><stop offset="25%" stop-color="rgb(79,130,227)" stop-opacity="0.5"></stop><stop offset="50%" stop-color="rgb(79,130,227)" stop-opacity="1"></stop><stop offset="75%" stop-color="rgb(79,130,227)" stop-opacity="0.5"></stop><stop offset="100%" stop-color="rgb(79,130,227)" stop-opacity="0"></stop></linearGradient></defs><g clip-path="url(#__lottie_element_1520)"><g transform="matrix(0.800000011920929,0,0,0.800000011920929,800.3015747070312,791.43798828125)" opacity="1" style="display: block;"><g opacity="1" transform="matrix(1,0,0,1,0,0)"><path fill="url(#__lottie_element_1621)" fill-opacity="1" d=" M-637.31201171875,-304.5509948730469 C-761.3419799804688,-103.96299743652344 -931.875,629.875 -931.875,629.875 C-931.875,629.875 931.875,629.875 931.875,629.875 C931.875,629.875 926.0089721679688,410.7070007324219 883.06201171875,245.18600463867188 C835.281005859375,61.03499984741211 741.60498046875,-110.81800079345703 559.125,-14.944000244140625 C434.8550109863281,51.858001708984375 310.6449890136719,362.9230041503906 186.375,295.93798828125 C62.104000091552734,228.95700073242188 -62.10499954223633,-173.3070068359375 -186.375,-351.489013671875 C-242.66900634765625,-432.20599365234375 -315.0669860839844,-471.364013671875 -388.93798828125,-471.364013671875 C-478.135986328125,-471.364013671875 -569.468994140625,-414.27301025390625 -637.31201171875,-304.5509948730469z"></path></g></g><g transform="matrix(0.800000011920929,0,0,0.800000011920929,235.03399658203125,459.1985778808594)" opacity="1" style="display: block;"><g opacity="1" transform="matrix(1,0,0,1,0,0)"><path stroke-linecap="butt" stroke-linejoin="miter" fill-opacity="0" stroke-miterlimit="10" stroke="rgb(255,255,255)" stroke-opacity="1" stroke-width="2.5" d=" M1.25,127.71099853515625 C1.25,127.71099853515625 960.4299926757812,127.71099853515625 960.4299926757812,127.71099853515625"></path></g><g opacity="1" transform="matrix(1,0,0,1,0,0)"><path stroke-linecap="butt" stroke-linejoin="miter" fill-opacity="0" stroke-miterlimit="10" stroke="rgb(255,255,255)" stroke-opacity="1" stroke-width="2.5" d=" M112.70800018310547,1.25 C112.70800018310547,1.25 112.70800018310547,982.968017578125 112.70800018310547,982.968017578125"></path></g><g opacity="1" transform="matrix(1,0,0,1,0,0)"><path stroke-linecap="butt" stroke-linejoin="miter" fill-opacity="0" stroke-miterlimit="10" stroke="rgb(255,255,255)" stroke-opacity="1" stroke-width="2.5" d=" M222.87399291992188,1.25 C222.87399291992188,1.25 222.87399291992188,982.968017578125 222.87399291992188,982.968017578125"></path></g><g opacity="1" transform="matrix(1,0,0,1,0,0)"><path stroke-linecap="butt" stroke-linejoin="miter" fill-opacity="0" stroke-miterlimit="10" stroke="rgb(255,255,255)" stroke-opacity="1" stroke-width="2.5" d=" M335.5409851074219,1.25 C335.5409851074219,1.25 335.5409851074219,982.968017578125 335.5409851074219,982.968017578125"></path></g><g opacity="1" transform="matrix(1,0,0,1,0,0)"><path stroke-linecap="butt" stroke-linejoin="miter" fill-opacity="0" stroke-miterlimit="10" stroke="rgb(255,255,255)" stroke-opacity="1" stroke-width="2.5" d=" M443.3190002441406,1.25 C443.3190002441406,1.25 443.3190002441406,982.968017578125 443.3190002441406,982.968017578125"></path></g><g opacity="1" transform="matrix(1,0,0,1,0,0)"><path stroke-linecap="butt" stroke-linejoin="miter" fill-opacity="0" stroke-miterlimit="10" stroke="rgb(255,255,255)" stroke-opacity="1" stroke-width="2.5" d=" M540.875,1.25 C540.875,1.25 540.875,982.968017578125 540.875,982.968017578125"></path></g><g opacity="1" transform="matrix(1,0,0,1,0,0)"><path stroke-linecap="butt" stroke-linejoin="miter" fill-opacity="0" stroke-miterlimit="10" stroke="rgb(255,255,255)" stroke-opacity="1" stroke-width="2.5" d=" M653.7639770507812,1.25 C653.7639770507812,1.25 653.7639770507812,982.968017578125 653.7639770507812,982.968017578125"></path></g><g opacity="1" transform="matrix(1,0,0,1,0,0)"><path stroke-linecap="butt" stroke-linejoin="miter" fill-opacity="0" stroke-miterlimit="10" stroke="rgb(255,255,255)" stroke-opacity="1" stroke-width="2.5" d=" M761.375,1.25 C761.375,1.25 761.375,982.968017578125 761.375,982.968017578125"></path></g><g opacity="1" transform="matrix(1,0,0,1,0,0)"><path stroke-linecap="butt" stroke-linejoin="miter" fill-opacity="0" stroke-miterlimit="10" stroke="rgb(255,255,255)" stroke-opacity="1" stroke-width="2.5" d=" M866.541015625,1.25 C866.541015625,1.25 866.541015625,982.968017578125 866.541015625,982.968017578125"></path></g><g opacity="1" transform="matrix(1,0,0,1,0,0)"><path stroke-linecap="butt" stroke-linejoin="miter" fill-opacity="0" stroke-miterlimit="10" stroke="rgb(255,255,255)" stroke-opacity="1" stroke-width="2.5" d=" M1.25,240.3769989013672 C1.25,240.3769989013672 960.4299926757812,240.3769989013672 960.4299926757812,240.3769989013672"></path></g><g opacity="1" transform="matrix(1,0,0,1,0,0)"><path stroke-linecap="butt" stroke-linejoin="miter" fill-opacity="0" stroke-miterlimit="10" stroke="rgb(255,255,255)" stroke-opacity="1" stroke-width="2.5" d=" M1.25,348.1549987792969 C1.25,348.1549987792969 960.4299926757812,348.1549987792969 960.4299926757812,348.1549987792969"></path></g><g opacity="1" transform="matrix(1,0,0,1,0,0)"><path stroke-linecap="butt" stroke-linejoin="miter" fill-opacity="0" stroke-miterlimit="10" stroke="rgb(255,255,255)" stroke-opacity="1" stroke-width="2.5" d=" M1.25,445.9339904785156 C1.25,445.9339904785156 960.4299926757812,445.9339904785156 960.4299926757812,445.9339904785156"></path></g><g opacity="1" transform="matrix(1,0,0,1,0,0)"><path stroke-linecap="butt" stroke-linejoin="miter" fill-opacity="0" stroke-miterlimit="10" stroke="rgb(255,255,255)" stroke-opacity="1" stroke-width="2.5" d=" M1.25,558.3779907226562 C1.25,558.3779907226562 960.4299926757812,558.3779907226562 960.4299926757812,558.3779907226562"></path></g><g opacity="1" transform="matrix(1,0,0,1,0,0)"><path stroke-linecap="butt" stroke-linejoin="miter" fill-opacity="0" stroke-miterlimit="10" stroke="rgb(255,255,255)" stroke-opacity="1" stroke-width="2.5" d=" M1.25,666.1279907226562 C1.25,666.1279907226562 960.4299926757812,666.1279907226562 960.4299926757812,666.1279907226562"></path></g><g opacity="1" transform="matrix(1,0,0,1,0,0)"><path stroke-linecap="butt" stroke-linejoin="miter" fill-opacity="0" stroke-miterlimit="10" stroke="rgb(255,255,255)" stroke-opacity="1" stroke-width="2.5" d=" M1.25,778.8779907226562 C1.25,778.8779907226562 960.4299926757812,778.8779907226562 960.4299926757812,778.8779907226562"></path></g><g opacity="1" transform="matrix(1,0,0,1,0,0)"><path stroke-linecap="butt" stroke-linejoin="miter" fill-opacity="0" stroke-miterlimit="10" stroke="rgb(255,255,255)" stroke-opacity="1" stroke-width="2.5" d=" M1.25,891.5440063476562 C1.25,891.5440063476562 960.4299926757812,891.5440063476562 960.4299926757812,891.5440063476562"></path></g></g><g transform="matrix(0.5333300232887268,0,0,0.5333300232887268,946.3920288085938,746.1279907226562)" opacity="1" style="display: block;"><g opacity="1" transform="matrix(1,0,0,1,0,0)"><path fill="url(#__lottie_element_1614)" fill-opacity="1" d=" M524.9669799804688,-758.989990234375 C524.9669799804688,-758.989990234375 -524.9669799804688,-758.989990234375 -524.9669799804688,-758.989990234375 C-524.9669799804688,-758.989990234375 -524.9669799804688,758.989990234375 -524.9669799804688,758.989990234375 C-524.9669799804688,758.989990234375 524.9669799804688,758.989990234375 524.9669799804688,758.989990234375 C524.9669799804688,758.989990234375 524.9669799804688,-758.989990234375 524.9669799804688,-758.989990234375z"></path></g></g><g transform="matrix(0.8566187024116516,-0.29707714915275574,0.29707714915275574,0.8566187024116516,500.75006103515625,1299.673095703125)" opacity="1" style="display: block;"><g opacity="1" transform="matrix(1,0,0,1,0,0)"><path fill="url(#__lottie_element_1610)" fill-opacity="1" d=" M-57.70465087890625,-62.20000076293945 C-57.70465087890625,-62.20000076293945 66.4517822265625,-62.20000076293945 66.4517822265625,-62.20000076293945 C66.4517822265625,-62.20000076293945 66.29534912109375,62.20000076293945 66.29534912109375,62.20000076293945 C66.29534912109375,62.20000076293945 -58.30465316772461,61.900001525878906 -58.30465316772461,61.900001525878906 C-58.30465316772461,61.900001525878906 -57.70465087890625,-62.20000076293945 -57.70465087890625,-62.20000076293945z"></path></g></g><g transform="matrix(0.8566187024116516,-0.29707714915275574,0.29707714915275574,0.8566187024116516,510.2118225097656,1365.2281494140625)" opacity="1" style="display: block;"><g opacity="1" transform="matrix(1,0,0,1,0,0)"><path fill="url(#__lottie_element_1606)" fill-opacity="1" d=" M80.09534454345703,-9.600000381469727 C80.09534454345703,-9.600000381469727 -44.4046516418457,-9.899999618530273 -44.4046516418457,-9.899999618530273 C-44.4046516418457,-9.899999618530273 -80.09534454345703,9.899999618530273 -80.09534454345703,9.899999618530273 C-80.09534454345703,9.899999618530273 44.104652404785156,9.699999809265137 44.104652404785156,9.699999809265137 C44.104652404785156,9.699999809265137 80.09534454345703,-9.600000381469727 80.09534454345703,-9.600000381469727z"></path></g></g><g transform="matrix(0.8566187024116516,-0.29707714915275574,0.29707714915275574,0.8566187024116516,438.68902587890625,1330.51611328125)" opacity="1" style="display: block;"><g opacity="1" transform="matrix(1,0,0,1,0,0)"><path fill="url(#__lottie_element_1602)" fill-opacity="1" d=" M17.551780700683594,52.20000076293945 C17.551780700683594,52.20000076293945 18.095348358154297,-71.9000015258789 18.095348358154297,-71.9000015258789 C18.095348358154297,-71.9000015258789 -17.795347213745117,-52.5 -17.795347213745117,-52.5 C-17.795347213745117,-52.5 -18.095348358154297,71.9000015258789 -18.095348358154297,71.9000015258789 C-18.095348358154297,71.9000015258789 17.551780700683594,52.20000076293945 17.551780700683594,52.20000076293945z"></path></g></g><g transform="matrix(0.8566187024116516,-0.29707714915275574,0.29707714915275574,0.8566187024116516,482.96405029296875,1324.45849609375)" opacity="0.8" style="display: block;"><g opacity="1" transform="matrix(1,0,0,1,0,0)"><path fill="url(#__lottie_element_1598)" fill-opacity="1" d=" M-66.09534454345703,-62.20000076293945 C-66.09534454345703,-62.20000076293945 58.24821853637695,-61.79999923706055 58.24821853637695,-61.79999923706055 C58.24821853637695,-61.79999923706055 57.80465316772461,62 57.80465316772461,62 C57.80465316772461,62 -66.39534759521484,62.20000076293945 -66.39534759521484,62.20000076293945 C-66.39534759521484,62.20000076293945 -66.09534454345703,-62.20000076293945 -66.09534454345703,-62.20000076293945z"></path></g></g><g transform="matrix(0.8566187024116516,-0.29707714915275574,0.29707714915275574,0.8566187024116516,545.0496826171875,1293.5618896484375)" opacity="1" style="display: block;"><g opacity="1" transform="matrix(1,0,0,1,0,0)"><path fill="url(#__lottie_element_1594)" fill-opacity="1" d=" M18.095348358154297,-71.80000305175781 C18.095348358154297,-71.80000305175781 -17.464645385742188,-52.05643081665039 -17.464645385742188,-52.05643081665039 C-17.464645385742188,-52.05643081665039 -17.964645385742188,71.84356689453125 -17.964645385742188,71.84356689453125 C-17.964645385742188,71.84356689453125 17.895347595214844,52.5 17.895347595214844,52.5 C17.895347595214844,52.5 18.095348358154297,-71.80000305175781 18.095348358154297,-71.80000305175781z"></path></g></g><g transform="matrix(0.8566187024116516,-0.29707714915275574,0.29707714915275574,0.8566187024116516,473.5718994140625,1258.8966064453125)" opacity="1" style="display: block;"><g opacity="1" transform="matrix(1,0,0,1,0,0)"><path fill="url(#__lottie_element_1590)" fill-opacity="1" d=" M79.99534606933594,-9.899999618530273 C79.99534606933594,-9.899999618530273 -44.104652404785156,-9.800000190734863 -44.104652404785156,-9.800000190734863 C-44.104652404785156,-9.800000190734863 -79.99534606933594,9.5 -79.99534606933594,9.5 C-79.99534606933594,9.5 44.47892379760742,9.856432914733887 44.47892379760742,9.856432914733887 C44.47892379760742,9.856432914733887 79.99534606933594,-9.899999618530273 79.99534606933594,-9.899999618530273z"></path></g></g><g transform="matrix(-0.602215051651001,-0.079661063849926,-0.079661063849926,0.602215051651001,1455.0487060546875,624.72021484375)" opacity="1" style="display: block;"><g opacity="1" transform="matrix(1,0,0,1,0,0)"><path fill="url(#__lottie_element_1586)" fill-opacity="1" d=" M-57.70465087890625,-62.20000076293945 C-57.70465087890625,-62.20000076293945 66.4517822265625,-62.20000076293945 66.4517822265625,-62.20000076293945 C66.4517822265625,-62.20000076293945 66.29534912109375,62.20000076293945 66.29534912109375,62.20000076293945 C66.29534912109375,62.20000076293945 -58.30465316772461,61.900001525878906 -58.30465316772461,61.900001525878906 C-58.30465316772461,61.900001525878906 -57.70465087890625,-62.20000076293945 -57.70465087890625,-62.20000076293945z"></path></g></g><g transform="matrix(-0.602215051651001,-0.079661063849926,-0.079661063849926,0.602215051651001,1457.6639404296875,669.0199584960938)" opacity="1" style="display: block;"><g opacity="1" transform="matrix(1,0,0,1,0,0)"><path fill="url(#__lottie_element_1582)" fill-opacity="1" d=" M80.09534454345703,-9.600000381469727 C80.09534454345703,-9.600000381469727 -44.4046516418457,-9.899999618530273 -44.4046516418457,-9.899999618530273 C-44.4046516418457,-9.899999618530273 -80.09534454345703,9.899999618530273 -80.09534454345703,9.899999618530273 C-80.09534454345703,9.899999618530273 44.104652404785156,9.699999809265137 44.104652404785156,9.699999809265137 C44.104652404785156,9.699999809265137 80.09534454345703,-9.600000381469727 80.09534454345703,-9.600000381469727z"></path></g></g><g transform="matrix(-0.602215051651001,-0.079661063849926,-0.079661063849926,0.602215051651001,1499.9329833984375,636.6093139648438)" opacity="1" style="display: block;"><g opacity="1" transform="matrix(1,0,0,1,0,0)"><path fill="url(#__lottie_element_1578)" fill-opacity="1" d=" M17.551780700683594,52.20000076293945 C17.551780700683594,52.20000076293945 18.095348358154297,-71.9000015258789 18.095348358154297,-71.9000015258789 C18.095348358154297,-71.9000015258789 -17.795347213745117,-52.5 -17.795347213745117,-52.5 C-17.795347213745117,-52.5 -18.095348358154297,71.9000015258789 -18.095348358154297,71.9000015258789 C-18.095348358154297,71.9000015258789 17.551780700683594,52.20000076293945 17.551780700683594,52.20000076293945z"></path></g></g><g transform="matrix(-0.602215051651001,-0.079661063849926,-0.079661063849926,0.602215051651001,1470.0589599609375,638.5932006835938)" opacity="0.8" style="display: block;"><g opacity="1" transform="matrix(1,0,0,1,0,0)"><path fill="url(#__lottie_element_1574)" fill-opacity="1" d=" M-66.09534454345703,-62.20000076293945 C-66.09534454345703,-62.20000076293945 58.24821853637695,-61.79999923706055 58.24821853637695,-61.79999923706055 C58.24821853637695,-61.79999923706055 57.80465316772461,62 57.80465316772461,62 C57.80465316772461,62 -66.39534759521484,62.20000076293945 -66.39534759521484,62.20000076293945 C-66.39534759521484,62.20000076293945 -66.09534454345703,-62.20000076293945 -66.09534454345703,-62.20000076293945z"></path></g></g><g transform="matrix(-0.602215051651001,-0.079661063849926,-0.079661063849926,0.602215051651001,1425.1513671875,626.6731567382812)" opacity="1" style="display: block;"><g opacity="1" transform="matrix(1,0,0,1,0,0)"><path fill="url(#__lottie_element_1570)" fill-opacity="1" d=" M18.095348358154297,-71.80000305175781 C18.095348358154297,-71.80000305175781 -17.464645385742188,-52.05643081665039 -17.464645385742188,-52.05643081665039 C-17.464645385742188,-52.05643081665039 -17.964645385742188,71.84356689453125 -17.964645385742188,71.84356689453125 C-17.964645385742188,71.84356689453125 17.895347595214844,52.5 17.895347595214844,52.5 C17.895347595214844,52.5 18.095348358154297,-71.80000305175781 18.095348358154297,-71.80000305175781z"></path></g></g><g transform="matrix(-0.602215051651001,-0.079661063849926,-0.079661063849926,0.602215051651001,1467.3973388671875,594.298828125)" opacity="1" style="display: block;"><g opacity="1" transform="matrix(1,0,0,1,0,0)"><path fill="url(#__lottie_element_1566)" fill-opacity="1" d=" M79.99534606933594,-9.899999618530273 C79.99534606933594,-9.899999618530273 -44.104652404785156,-9.800000190734863 -44.104652404785156,-9.800000190734863 C-44.104652404785156,-9.800000190734863 -79.99534606933594,9.5 -79.99534606933594,9.5 C-79.99534606933594,9.5 44.47892379760742,9.856432914733887 44.47892379760742,9.856432914733887 C44.47892379760742,9.856432914733887 79.99534606933594,-9.899999618530273 79.99534606933594,-9.899999618530273z"></path></g></g><g transform="matrix(0.5333300232887268,0,0,0.5333300232887268,0.006591796875,-13.181396484375)" opacity="1" style="display: block;"><g opacity="1" transform="matrix(1,0,0,1,2095.19091796875,1783.1199951171875)"><path fill="rgb(17,17,17)" fill-opacity="1" d=" M-568.5999755859375,-305.2430114746094 C-568.5999755859375,-326.8190002441406 -551.0850219726562,-344.32000732421875 -529.489990234375,-344.32000732421875 C-529.489990234375,-344.32000732421875 529.489990234375,-344.32000732421875 529.489990234375,-344.32000732421875 C551.0850219726562,-344.32000732421875 568.5999755859375,-326.8190002441406 568.5999755859375,-305.2430114746094 C568.5999755859375,-305.2430114746094 568.5999755859375,344.32000732421875 568.5999755859375,344.32000732421875 C568.5999755859375,344.32000732421875 -568.5999755859375,344.32000732421875 -568.5999755859375,344.32000732421875 C-568.5999755859375,344.32000732421875 -568.5999755859375,-305.2430114746094 -568.5999755859375,-305.2430114746094z"></path></g><g opacity="1" transform="matrix(1,0,0,1,2095.19091796875,1791.7509765625)"><path fill="rgb(255,255,255)" fill-opacity="1" d=" M-530.6900024414062,-301.2879943847656 C-530.6900024414062,-301.2879943847656 530.6900024414062,-301.2879943847656 530.6900024414062,-301.2879943847656 C530.6900024414062,-301.2879943847656 530.6900024414062,301.2879943847656 530.6900024414062,301.2879943847656 C530.6900024414062,301.2879943847656 -530.6900024414062,301.2879943847656 -530.6900024414062,301.2879943847656 C-530.6900024414062,301.2879943847656 -530.6900024414062,-301.2879943847656 -530.6900024414062,-301.2879943847656z"></path></g><g opacity="1" transform="matrix(1,0,0,1,2095.132080078125,1493.8790283203125)"><path fill="rgb(17,17,17)" fill-opacity="1" d=" M-110.25299835205078,-30.986000061035156 C-110.25299835205078,-30.986000061035156 110.25299835205078,-30.986000061035156 110.25299835205078,-30.986000061035156 C110.25299835205078,-30.986000061035156 110.25299835205078,30.986000061035156 110.25299835205078,30.986000061035156 C110.25299835205078,30.986000061035156 -110.25299835205078,30.986000061035156 -110.25299835205078,30.986000061035156 C-110.25299835205078,30.986000061035156 -110.25299835205078,-30.986000061035156 -110.25299835205078,-30.986000061035156z"></path></g><g opacity="1" transform="matrix(1,0,0,1,2087.39306640625,2260.85302734375)"><path fill="url(#__lottie_element_1544)" fill-opacity="1" d=" M-560.802001953125,-133.41299438476562 C-560.802001953125,-133.41299438476562 576.3980102539062,-133.41299438476562 576.3980102539062,-133.41299438476562 C576.3980102539062,-133.41299438476562 758.9929809570312,133.41299438476562 758.9929809570312,133.41299438476562 C758.9929809570312,133.41299438476562 -758.9929809570312,133.41299438476562 -758.9929809570312,133.41299438476562 C-758.9929809570312,133.41299438476562 -560.802001953125,-133.41299438476562 -560.802001953125,-133.41299438476562z"></path></g><g opacity="1" transform="matrix(1,0,0,1,2094.2919921875,2249.64599609375)"><path fill="rgb(17,17,17)" fill-opacity="1" d=" M-153.32200622558594,39.61600112915039 C-153.32200622558594,39.61600112915039 148.76300048828125,39.61600112915039 148.76300048828125,39.61600112915039 C148.76300048828125,39.61600112915039 171.43800354003906,108.41999816894531 171.43800354003906,108.41999816894531 C171.43800354003906,108.41999816894531 -185.23399353027344,108.41999816894531 -185.23399353027344,108.41999816894531 C-185.23399353027344,108.41999816894531 -153.32200622558594,39.61600112915039 -153.32200622558594,39.61600112915039 C-153.32200622558594,39.61600112915039 -153.32200622558594,39.61600112915039 -153.32200622558594,39.61600112915039z M-492.5989990234375,-108.41999816894531 C-492.5989990234375,-108.41999816894531 492.239013671875,-108.41999816894531 492.239013671875,-108.41999816894531 C492.239013671875,-108.41999816894531 579.8179931640625,25.83099937438965 579.8179931640625,25.83099937438965 C579.8179931640625,25.83099937438965 -579.8179931640625,25.83099937438965 -579.8179931640625,25.83099937438965 C-579.8179931640625,25.83099937438965 -492.5989990234375,-108.41999816894531 -492.5989990234375,-108.41999816894531z"></path></g><g opacity="1" transform="matrix(1,0,0,1,2087.39306640625,2423.513916015625)"><path fill="url(#__lottie_element_1545)" fill-opacity="1" d=" M-758.9929809570312,-29.24799919128418 C-758.9929809570312,-29.24799919128418 758.9929809570312,-29.24799919128418 758.9929809570312,-29.24799919128418 C758.9929809570312,-29.24799919128418 758.9929809570312,29.24799919128418 758.9929809570312,29.24799919128418 C758.9929809570312,29.24799919128418 -758.9929809570312,29.24799919128418 -758.9929809570312,29.24799919128418 C-758.9929809570312,29.24799919128418 -758.9929809570312,-29.24799919128418 -758.9929809570312,-29.24799919128418z"></path></g><g opacity="1" transform="matrix(1,0,0,1,2095.132080078125,2409.7890625)"><path fill="rgb(99,173,143)" fill-opacity="1" d=" M-137.8459930419922,-15.52299976348877 C-137.8459930419922,-15.52299976348877 137.8459930419922,-15.52299976348877 137.8459930419922,-15.52299976348877 C137.8459930419922,1.6180000305175781 123.93000030517578,15.52299976348877 106.77400207519531,15.52299976348877 C106.77400207519531,15.52299976348877 -106.77400207519531,15.52299976348877 -106.77400207519531,15.52299976348877 C-123.93000030517578,15.52299976348877 -137.8459930419922,1.6180000305175781 -137.8459930419922,-15.52299976348877z"></path></g></g><g transform="matrix(0.5333300232887268,0,0,0.5333300232887268,800.0016479492188,786.8136596679688)" opacity="1" style="display: block;"><g opacity="1" transform="matrix(1,0,0,1,0,0)"><path fill="rgb(99,173,143)" fill-opacity="1" d=" M374.1000061035156,100.80000305175781 C374.1000061035156,100.80000305175781 424.8999938964844,100.80000305175781 424.8999938964844,100.80000305175781 C424.8999938964844,100.80000305175781 424.8999938964844,245.5 424.8999938964844,245.5 C424.8999938964844,245.5 374.1000061035156,245.5 374.1000061035156,245.5 C374.1000061035156,245.5 374.1000061035156,100.80000305175781 374.1000061035156,100.80000305175781z M468,100.80000305175781 C468,100.80000305175781 612.5999755859375,100.80000305175781 612.5999755859375,100.80000305175781 C612.5999755859375,100.80000305175781 612.5999755859375,151.60000610351562 612.5999755859375,151.60000610351562 C612.5999755859375,151.60000610351562 468,151.60000610351562 468,151.60000610351562 C468,151.60000610351562 468,100.80000305175781 468,100.80000305175781z M839.2999877929688,468.3999938964844 C839.2999877929688,468.3999938964844 890.0999755859375,468.3999938964844 890.0999755859375,468.3999938964844 C890.0999755859375,468.3999938964844 890.0999755859375,523.2000122070312 890.0999755859375,523.2000122070312 C890.0999755859375,523.2000122070312 839.2999877929688,523.2000122070312 839.2999877929688,523.2000122070312 C839.2999877929688,523.2000122070312 839.2999877929688,468.3999938964844 839.2999877929688,468.3999938964844z"></path></g></g><g transform="matrix(0.5333300232887268,0,0,0.5333300232887268,1137.73291015625,953.7992553710938)" opacity="1" style="display: block;"><g opacity="1" transform="matrix(1,0,0,1,0,0)"><path fill="rgb(99,173,143)" fill-opacity="1" d=" M-20.75,-68.9000015258789 C-20.75,-68.9000015258789 20.75,-68.9000015258789 20.75,-68.9000015258789 C20.75,-68.9000015258789 20.75,-25.100000381469727 20.75,-25.100000381469727 C20.75,-25.100000381469727 71.05000305175781,-25.100000381469727 71.05000305175781,-25.100000381469727 C71.05000305175781,-25.100000381469727 71.05000305175781,-119.19999694824219 71.05000305175781,-119.19999694824219 C71.05000305175781,-119.19999694824219 -71.05000305175781,-119.19999694824219 -71.05000305175781,-119.19999694824219 C-71.05000305175781,-119.19999694824219 -71.05000305175781,119.19999694824219 -71.05000305175781,119.19999694824219 C-71.05000305175781,119.19999694824219 71.05000305175781,119.19999694824219 71.05000305175781,119.19999694824219 C71.05000305175781,119.19999694824219 71.05000305175781,20.799999237060547 71.05000305175781,20.799999237060547 C71.05000305175781,20.799999237060547 20.75,20.799999237060547 20.75,20.799999237060547 C20.75,20.799999237060547 20.75,68.9000015258789 20.75,68.9000015258789 C20.75,68.9000015258789 -20.75,68.9000015258789 -20.75,68.9000015258789 C-20.75,68.9000015258789 -20.75,-68.9000015258789 -20.75,-68.9000015258789z"></path></g></g><g transform="matrix(0.5333300232887268,0,0,0.5333300232887268,1112.1063232421875,1026.2254638671875)" opacity="1" style="display: block;"><g opacity="1" transform="matrix(1,0,0,1,0,0)"><path fill="rgb(99,173,143)" fill-opacity="1" d=" M160.3000030517578,-74.30000305175781 C160.3000030517578,-74.30000305175781 211.10000610351562,-74.30000305175781 211.10000610351562,-74.30000305175781 C211.10000610351562,-74.30000305175781 211.10000610351562,74.30000305175781 211.10000610351562,74.30000305175781 C211.10000610351562,74.30000305175781 -211.10000610351562,74.30000305175781 -211.10000610351562,74.30000305175781 C-211.10000610351562,74.30000305175781 -211.10000610351562,-71.30000305175781 -211.10000610351562,-71.30000305175781 C-211.10000610351562,-71.30000305175781 -160.8000030517578,-71.30000305175781 -160.8000030517578,-71.30000305175781 C-160.8000030517578,-71.30000305175781 -160.8000030517578,23.399999618530273 -160.8000030517578,23.399999618530273 C-160.8000030517578,23.399999618530273 160.3000030517578,23.399999618530273 160.3000030517578,23.399999618530273 C160.3000030517578,23.399999618530273 160.3000030517578,-74.30000305175781 160.3000030517578,-74.30000305175781 C160.3000030517578,-74.30000305175781 160.3000030517578,-74.30000305175781 160.3000030517578,-74.30000305175781z"></path></g></g><g transform="matrix(0.5333300232887268,0,0,0.5333300232887268,800.0016479492188,786.8136596679688)" opacity="1" style="display: block;"><g opacity="1" transform="matrix(1,0,0,1,0,0)"><path fill="rgb(99,173,143)" fill-opacity="1" d=" M518.4000244140625,193.89999389648438 C518.4000244140625,193.89999389648438 468.1000061035156,193.89999389648438 468.1000061035156,193.89999389648438 C468.1000061035156,193.89999389648438 468.1000061035156,288 468.1000061035156,288 C468.1000061035156,288 374.1000061035156,288 374.1000061035156,288 C374.1000061035156,288 374.1000061035156,338.29998779296875 374.1000061035156,338.29998779296875 C374.1000061035156,338.29998779296875 468.1000061035156,338.29998779296875 468.1000061035156,338.29998779296875 C468.1000061035156,338.29998779296875 468.1000061035156,428 468.1000061035156,428 C468.1000061035156,428 518.4000244140625,428 518.4000244140625,428 C518.4000244140625,428 518.4000244140625,193.89999389648438 518.4000244140625,193.89999389648438z M656.2000122070312,152.3000030517578 C656.2000122070312,152.3000030517578 656.2000122070312,102 656.2000122070312,102 C656.2000122070312,102 890.2000122070312,102 890.2000122070312,102 C890.2000122070312,102 890.2000122070312,152.3000030517578 890.2000122070312,152.3000030517578 C890.2000122070312,152.3000030517578 800.5999755859375,152.3000030517578 800.5999755859375,152.3000030517578 C800.5999755859375,152.3000030517578 800.5999755859375,246.39999389648438 800.5999755859375,246.39999389648438 C800.5999755859375,246.39999389648438 750.2999877929688,246.39999389648438 750.2999877929688,246.39999389648438 C750.2999877929688,246.39999389648438 750.2999877929688,152.3000030517578 750.2999877929688,152.3000030517578 C750.2999877929688,152.3000030517578 656.2000122070312,152.3000030517578 656.2000122070312,152.3000030517578z"></path></g></g><g transform="matrix(0.5333300232887268,0,0,0.5333300232887268,1236.292236328125,952.652587890625)" opacity="1" style="display: block;"><g opacity="1" transform="matrix(1,0,0,1,0,0)"><path fill="rgb(99,173,143)" fill-opacity="1" d=" M72.1500015258789,-117.05000305175781 C72.1500015258789,-117.05000305175781 21.850000381469727,-117.05000305175781 21.850000381469727,-117.05000305175781 C21.850000381469727,-117.05000305175781 21.850000381469727,-22.950000762939453 21.850000381469727,-22.950000762939453 C21.850000381469727,-22.950000762939453 -72.1500015258789,-22.950000762939453 -72.1500015258789,-22.950000762939453 C-72.1500015258789,-22.950000762939453 -72.1500015258789,27.350000381469727 -72.1500015258789,27.350000381469727 C-72.1500015258789,27.350000381469727 21.850000381469727,27.350000381469727 21.850000381469727,27.350000381469727 C21.850000381469727,27.350000381469727 21.850000381469727,117.05000305175781 21.850000381469727,117.05000305175781 C21.850000381469727,117.05000305175781 72.1500015258789,117.05000305175781 72.1500015258789,117.05000305175781 C72.1500015258789,117.05000305175781 72.1500015258789,-117.05000305175781 72.1500015258789,-117.05000305175781z"></path></g></g><g transform="matrix(0.5333300232887268,0,0,0.5333300232887268,800.0016479492188,786.8136596679688)" opacity="1" style="display: block;"><g opacity="1" transform="matrix(1,0,0,1,0,0)"><path stroke-linecap="round" stroke-linejoin="round" fill-opacity="0" stroke-dasharray=" 10" stroke-dashoffset="0" stroke="rgb(0,0,0)" stroke-opacity="1" stroke-width="4" d=" M426.5840148925781,270 C438.89801025390625,270 447.625,270 447.625,270 C447.625,270 447.625,174 447.625,174 C447.625,174 727.5,176 727.5,176 C727.5,176 727.5,358 727.5,358 C727.5,358 821,358 821,358 C821,358 821,449.375 821,449.375 C821,449.375 933,449.375 933,449.375"></path></g><g opacity="1" transform="matrix(1,0,0,1,0,0)"><path stroke-linecap="round" stroke-linejoin="round" fill-opacity="0" stroke-dasharray=" 10" stroke-dashoffset="0" stroke="rgb(0,0,0)" stroke-opacity="1" stroke-width="4" d="M0 0"></path></g></g><g transform="matrix(0.5048342943191528,0.17199788987636566,-0.17199788987636566,0.5048342943191528,953.5780029296875,366.5980224609375)" opacity="1" style="display: block;"><g opacity="1" transform="matrix(1,0,0,1,0,0)"><path fill="url(#__lottie_element_1539)" fill-opacity="1" d=" M-268.20599365234375,-145.42999267578125 C-272.8819885253906,-143.27099609375 -278.27801513671875,-140.39300537109375 -284.15301513671875,-136.43499755859375 C-307.5329895019531,-120.48500061035156 -313.52899169921875,-106.5739974975586 -313.52899169921875,-106.5739974975586 C-313.52899169921875,-106.5739974975586 -309.4519958496094,-96.13999938964844 -309.4519958496094,-96.13999938964844 C-312.2099914550781,-94.22100067138672 -317.7250061035156,-90.50299835205078 -317.8450012207031,-90.50299835205078 C-320.6029968261719,-88.58399963378906 -322.4020080566406,-85.58599853515625 -323.0010070800781,-82.22799682617188 C-323.8399963378906,-77.31099700927734 -341.7049865722656,39.13800048828125 -286.6709899902344,168.5399932861328 C-273.72198486328125,199.0019989013672 -259.8139953613281,227.4239959716797 -245.18600463867188,252.968994140625 C-229.11900329589844,281.0320129394531 -196.14700317382812,295.3030090332031 -164.85299682617188,287.74798583984375 C-164.85299682617188,287.74798583984375 -141.71200561523438,282.2309875488281 -141.71200561523438,282.2309875488281 C-140.39300537109375,281.8710021972656 -139.07400512695312,281.5119934082031 -137.7550048828125,280.9119873046875 C-128.64300537109375,277.0740051269531 -122.64800262451172,268.20001220703125 -122.76799774169922,258.84600830078125 C-122.76799774169922,258.84600830078125 -115.5739974975586,151.6300048828125 -115.5739974975586,151.6300048828125 C-114.9739990234375,142.156005859375 -109.0989990234375,133.88099670410156 -100.34600067138672,130.16299438476562 C-100.34600067138672,130.16299438476562 134.53700256347656,30.263999938964844 134.53700256347656,30.263999938964844 C143.2899932861328,26.54599952697754 153.24200439453125,27.986000061035156 160.55599975585938,34.10200119018555 C160.55599975585938,34.10200119018555 242.08799743652344,102.69999694824219 242.08799743652344,102.69999694824219 C250.36099243164062,110.73500061035156 263.07000732421875,112.05400085449219 272.7820129394531,105.81800079345703 C272.7820129394531,105.81800079345703 292.80499267578125,93.10600280761719 292.80499267578125,93.10600280761719 C319.9020080566406,75.83599853515625 332.61199951171875,42.13600158691406 323.5,11.074999809265137 C315.22698974609375,-17.22800064086914 304.43499755859375,-46.96900177001953 291.4859924316406,-77.43099975585938 C236.45199584960938,-206.83299255371094 140.17300415039062,-274.7120056152344 136.0959930419922,-277.4700012207031 C133.33799743652344,-279.3890075683594 129.9810028076172,-280.1090087890625 126.6240005493164,-279.5090026855469 C126.50399780273438,-279.5090026855469 120.02899932861328,-278.07000732421875 116.6719970703125,-277.4700012207031 C116.6719970703125,-277.4700012207031 111.99600219726562,-287.54400634765625 111.99600219726562,-287.54400634765625 C111.99600219726562,-287.54400634765625 97.72799682617188,-292.8210144042969 70.03099822998047,-287.0639953613281 C42.33399963378906,-281.3070068359375 32.86199951171875,-269.19500732421875 32.86199951171875,-269.19500732421875 C32.86199951171875,-269.19500732421875 35.2599983215332,-257.0830078125 35.2599983215332,-257.0830078125 C-5.625999927520752,-245.57000732421875 -55.263999938964844,-229.61900329589844 -105.62200164794922,-208.27200317382812 C-155.97999572753906,-186.9250030517578 -201.90199279785156,-162.10000610351562 -238.4709930419922,-140.63299560546875 C-238.4709930419922,-140.63299560546875 -245.5449981689453,-150.70700073242188 -245.5449981689453,-150.70700073242188 C-245.4250030517578,-150.94700622558594 -254.05799865722656,-151.78599548339844 -268.20599365234375,-145.42999267578125 C-268.20599365234375,-145.42999267578125 -268.20599365234375,-145.42999267578125 -268.20599365234375,-145.42999267578125z M75.06700134277344,-217.02699279785156 C84.65899658203125,-221.10499572753906 95.68900299072266,-216.66700744628906 99.76599884033203,-207.072998046875 C103.84300231933594,-197.47900390625 99.40699768066406,-186.4459991455078 89.81500244140625,-182.3679962158203 C80.2229995727539,-178.2899932861328 69.19200134277344,-182.72799682617188 65.11499786376953,-192.32200622558594 C61.03799819946289,-201.91600036621094 65.59500122070312,-212.94900512695312 75.06700134277344,-217.02699279785156z M-249.14199829101562,-65.55799865722656 C-249.14199829101562,-65.55799865722656 -238.3509979248047,-70.11599731445312 -238.3509979248047,-70.11599731445312 C-231.03700256347656,-73.23400115966797 -222.6439971923828,-69.03600311279297 -220.7259979248047,-61.24100112915039 C-220.7259979248047,-61.24100112915039 -218.5679931640625,-52.125999450683594 -218.5679931640625,-52.125999450683594 C-217.8489990234375,-49.24800109863281 -218.20799255371094,-46.36899948120117 -219.40699768066406,-43.73099899291992 C-219.40699768066406,-43.73099899291992 -224.68299865722656,-32.3380012512207 -224.68299865722656,-32.3380012512207 C-225.8820037841797,-29.81999969482422 -228.63900756835938,-28.621000289916992 -231.27699279785156,-29.579999923706055 C-231.27699279785156,-29.579999923706055 -243.14700317382812,-33.65800094604492 -243.14700317382812,-33.65800094604492 C-245.90499877929688,-34.617000579833984 -248.18299865722656,-36.415000915527344 -249.74200439453125,-38.81399917602539 C-249.74200439453125,-38.81399917602539 -254.8979949951172,-46.72999954223633 -254.8979949951172,-46.72999954223633 C-259.3340148925781,-53.44599914550781 -256.45599365234375,-62.439998626708984 -249.14199829101562,-65.55799865722656 C-249.14199829101562,-65.55799865722656 -249.14199829101562,-65.55799865722656 -249.14199829101562,-65.55799865722656z M55.16400146484375,-167.73699951171875 C64.75599670410156,-171.81500244140625 75.78600311279297,-167.3769989013672 79.86299896240234,-157.7830047607422 C83.94000244140625,-148.18899536132812 79.50299835205078,-137.15499877929688 69.91100311279297,-133.07699584960938 C60.319000244140625,-128.99899291992188 49.28900146484375,-133.43699645996094 45.21200180053711,-143.031005859375 C41.1349983215332,-152.5050048828125 45.571998596191406,-163.65899658203125 55.16400146484375,-167.73699951171875z M124.58599853515625,-197.23899841308594 C134.17799377441406,-201.31700134277344 145.20799255371094,-196.87899780273438 149.28500366210938,-187.28500366210938 C153.36199951171875,-177.6909942626953 148.92599487304688,-166.6580047607422 139.33399963378906,-162.5800018310547 C129.74200439453125,-158.5019989013672 118.71099853515625,-162.94000244140625 114.63400268554688,-172.53399658203125 C110.43699645996094,-182.00799560546875 114.99400329589844,-193.16099548339844 124.58599853515625,-197.23899841308594z M-266.52801513671875,-23.94300079345703 C-265.6889953613281,-24.42300033569336 -264.72900390625,-24.663000106811523 -263.7699890136719,-24.902999877929688 C-263.7699890136719,-24.902999877929688 -254.53799438476562,-27.062000274658203 -254.53799438476562,-27.062000274658203 C-251.66000366210938,-27.781999588012695 -248.7830047607422,-27.42099952697754 -246.14500427246094,-26.222000122070312 C-246.14500427246094,-26.222000122070312 -234.75399780273438,-20.94499969482422 -234.75399780273438,-20.94499969482422 C-232.23599243164062,-19.746000289916992 -231.03799438476562,-16.98699951171875 -231.9969940185547,-14.348999977111816 C-231.9969940185547,-14.348999977111816 -236.072998046875,-2.4760000705718994 -236.072998046875,-2.4760000705718994 C-237.03199768066406,0.28200000524520874 -238.83099365234375,2.561000108718872 -241.3489990234375,4.119999885559082 C-241.3489990234375,4.119999885559082 -249.26199340820312,9.156999588012695 -249.26199340820312,9.156999588012695 C-255.9759979248047,13.473999977111816 -264.9700012207031,10.715999603271484 -268.0870056152344,3.4000000953674316 C-268.0870056152344,3.4000000953674316 -272.64300537109375,-7.39300012588501 -272.64300537109375,-7.39300012588501 C-275.4010009765625,-13.74899959564209 -272.52301025390625,-20.94499969482422 -266.52801513671875,-23.94300079345703 C-266.52801513671875,-23.94300079345703 -266.52801513671875,-23.94300079345703 -266.52801513671875,-23.94300079345703z M-196.38600158691406,-53.80500030517578 C-190.1510009765625,-56.08399963378906 -182.95799255371094,-53.20600128173828 -180.1999969482422,-46.72999954223633 C-180.1999969482422,-46.72999954223633 -175.6439971923828,-35.93600082397461 -175.6439971923828,-35.93600082397461 C-172.52699279785156,-28.6200008392334 -176.7220001220703,-20.22599983215332 -184.51600646972656,-18.427000045776367 C-184.51600646972656,-18.427000045776367 -193.74899291992188,-16.26799964904785 -193.74899291992188,-16.26799964904785 C-196.6269989013672,-15.54800033569336 -199.50399780273438,-15.909000396728516 -202.14199829101562,-17.107999801635742 C-202.14199829101562,-17.107999801635742 -213.53199768066406,-22.384000778198242 -213.53199768066406,-22.384000778198242 C-216.0500030517578,-23.58300018310547 -217.24899291992188,-26.341999053955078 -216.2899932861328,-28.979999542236328 C-216.2899932861328,-28.979999542236328 -212.21299743652344,-40.85300064086914 -212.21299743652344,-40.85300064086914 C-211.25399780273438,-43.611000061035156 -209.45599365234375,-45.88999938964844 -206.93800354003906,-47.569000244140625 C-206.93800354003906,-47.569000244140625 -199.0240020751953,-52.60599899291992 -199.0240020751953,-52.60599899291992 C-198.18499755859375,-52.965999603271484 -197.22500610351562,-53.44499969482422 -196.38600158691406,-53.80500030517578 C-196.38600158691406,-53.80500030517578 -196.38600158691406,-53.80500030517578 -196.38600158691406,-53.80500030517578z M-220.7259979248047,-13.630000114440918 C-219.52699279785156,-14.109999656677246 -218.08799743652344,-14.229999542236328 -216.88900756835938,-13.75 C-216.88900756835938,-13.75 -205.0189971923828,-9.67199993133545 -205.0189971923828,-9.67199993133545 C-202.26100158691406,-8.713000297546387 -199.98399353027344,-6.914000034332275 -198.4250030517578,-4.514999866485596 C-198.4250030517578,-4.514999866485596 -193.2689971923828,3.4000000953674316 -193.2689971923828,3.4000000953674316 C-188.9530029296875,10.116000175476074 -191.7100067138672,19.111000061035156 -199.1439971923828,22.229000091552734 C-199.1439971923828,22.229000091552734 -209.93499755859375,26.785999298095703 -209.93499755859375,26.785999298095703 C-217.24899291992188,29.90399932861328 -225.64199829101562,25.70599937438965 -227.55999755859375,17.910999298095703 C-227.55999755859375,17.910999298095703 -229.718994140625,8.79699993133545 -229.718994140625,8.79699993133545 C-230.43800354003906,5.919000148773193 -230.0780029296875,3.0399999618530273 -228.87899780273438,0.4020000100135803 C-228.87899780273438,0.4020000100135803 -223.60400390625,-10.991000175476074 -223.60400390625,-10.991000175476074 C-222.88499450683594,-12.1899995803833 -221.9250030517578,-13.149999618530273 -220.7259979248047,-13.630000114440918 C-220.7259979248047,-13.630000114440918 -220.7259979248047,-13.630000114440918 -220.7259979248047,-13.630000114440918z M104.56199645996094,-147.82899475097656 C114.15399932861328,-151.90699768066406 125.18499755859375,-147.468994140625 129.26199340820312,-137.875 C133.33900451660156,-128.281005859375 128.90199279785156,-117.24800109863281 119.30999755859375,-113.16999816894531 C109.71800231933594,-109.09200286865234 98.68800354003906,-113.52899932861328 94.61100006103516,-123.12300109863281 C90.53399658203125,-132.7169952392578 94.97000122070312,-143.75100708007812 104.56199645996094,-147.82899475097656z M-112.81600189208984,-0.796999990940094 C-93.63200378417969,-8.95199966430664 -71.56999969482422,-0.07699999958276749 -63.41699981689453,19.111000061035156 C-55.263999938964844,38.29899978637695 -64.25700378417969,60.36600112915039 -83.44100189208984,68.52100372314453 C-102.625,76.6760025024414 -124.68599700927734,67.8010025024414 -132.83900451660156,48.612998962402344 C-140.99200439453125,29.424999237060547 -132,7.357999801635742 -112.81600189208984,-0.796999990940094z M49.04899978637695,-69.63600158691406 C68.23300170898438,-77.79100036621094 90.29499816894531,-68.91600036621094 98.447998046875,-49.72800064086914 C106.60099792480469,-30.540000915527344 97.60800170898438,-8.472999572753906 78.42400360107422,-0.3179999887943268 C59.2400016784668,7.836999893188477 37.17900085449219,-1.0379999876022339 29.025999069213867,-20.22599983215332 C20.87299919128418,-39.41400146484375 29.864999771118164,-61.48099899291992 49.04899978637695,-69.63600158691406z"></path></g></g><g transform="matrix(0.5120000243186951,0,0,0.5120000243186951,38.5908203125,59.35919189453125)" opacity="1" style="display: block;"><g opacity="1" transform="matrix(1,0,0,1,1258.8060302734375,1550.81298828125)"><path fill="url(#__lottie_element_1527)" fill-opacity="1" d=" M553.2059936523438,-328.3489990234375 C553.2059936523438,-328.3489990234375 -553.2059936523438,-328.3489990234375 -553.2059936523438,-328.3489990234375 C-553.2059936523438,-328.3489990234375 -553.2059936523438,328.3489990234375 -553.2059936523438,328.3489990234375 C-553.2059936523438,328.3489990234375 553.2059936523438,328.3489990234375 553.2059936523438,328.3489990234375 C553.2059936523438,328.3489990234375 553.2059936523438,-328.3489990234375 553.2059936523438,-328.3489990234375z"></path></g><g opacity="1" transform="matrix(1,0,0,1,1258.8060302734375,1165.2989501953125)"><path fill="rgb(17,17,17)" fill-opacity="1" d=" M553.2059936523438,-63.69900131225586 C553.2059936523438,-63.69900131225586 -553.2059936523438,-63.69900131225586 -553.2059936523438,-63.69900131225586 C-553.2059936523438,-63.69900131225586 -553.2059936523438,63.69900131225586 -553.2059936523438,63.69900131225586 C-553.2059936523438,63.69900131225586 553.2059936523438,63.69900131225586 553.2059936523438,63.69900131225586 C553.2059936523438,63.69900131225586 553.2059936523438,-63.69900131225586 553.2059936523438,-63.69900131225586z"></path></g><g opacity="1" transform="matrix(1,0,0,1,860.5969848632812,1165.241943359375)"><g opacity="1" transform="matrix(1,0,0,1,0,0)"><path fill="rgb(255,255,255)" fill-opacity="1" d=" M-66.89299774169922,24.555999755859375 C-54.29100036621094,24.555999755859375 -44.051998138427734,13.630000114440918 -44.051998138427734,0 C-44.051998138427734,-13.630000114440918 -54.29100036621094,-24.555999755859375 -66.89299774169922,-24.555999755859375 C-79.49500274658203,-24.555999755859375 -89.73500061035156,-13.517000198364258 -89.73500061035156,0.11299999803304672 C-89.73500061035156,13.743000030517578 -79.49500274658203,24.555999755859375 -66.89299774169922,24.555999755859375z M0.0560000017285347,24.555999755859375 C13.557999610900879,24.555999755859375 24.586000442504883,13.630000114440918 24.586000442504883,0 C24.586000442504883,-13.630000114440918 13.670999526977539,-24.555999755859375 0.0560000017285347,-24.555999755859375 C-13.559000015258789,-24.555999755859375 -24.472999572753906,-13.517000198364258 -24.472999572753906,0.11299999803304672 C-24.472999572753906,13.743000030517578 -13.446000099182129,24.555999755859375 0.0560000017285347,24.555999755859375z M66.89299774169922,24.555999755859375 C79.49500274658203,24.555999755859375 89.73500061035156,13.630000114440918 89.73500061035156,0 C89.73500061035156,-13.630000114440918 79.49500274658203,-24.555999755859375 66.89299774169922,-24.555999755859375 C54.29100036621094,-24.555999755859375 44.051998138427734,-13.630000114440918 44.051998138427734,0 C44.051998138427734,13.630000114440918 54.29100036621094,24.555999755859375 66.89299774169922,24.555999755859375z"></path></g></g></g><g transform="matrix(-0.6933350563049316,0,0,0.6933350563049316,1697.302734375,70.28319549560547)" opacity="1" style="display: block;"><g opacity="1" transform="matrix(0,0,0,1,1209.6510009765625,0)"><g opacity="1" transform="matrix(1,0,0,1,1422.2889404296875,985.47998046875)"><path fill="rgb(17,17,17)" fill-opacity="1" d=" M212.63699340820312,21.41699981689453 C212.63699340820312,21.41699981689453 -212.63699340820312,21.41699981689453 -212.63699340820312,21.41699981689453 C-212.63699340820312,21.41699981689453 -212.63699340820312,-21.41699981689453 -212.63699340820312,-21.41699981689453 C-212.63699340820312,-21.41699981689453 212.63699340820312,-21.41699981689453 212.63699340820312,-21.41699981689453 C212.63699340820312,-21.41699981689453 212.63699340820312,21.41699981689453 212.63699340820312,21.41699981689453z"></path></g></g><g opacity="1" transform="matrix(0,0,0,1,1209.6510009765625,0)"><g opacity="1" transform="matrix(1,0,0,1,1298.3780517578125,1083.385986328125)"><path fill="rgb(17,17,17)" fill-opacity="1" d=" M88.72699737548828,21.41699981689453 C88.72699737548828,21.41699981689453 -88.72699737548828,21.41699981689453 -88.72699737548828,21.41699981689453 C-88.72699737548828,21.41699981689453 -88.72699737548828,-21.41699981689453 -88.72699737548828,-21.41699981689453 C-88.72699737548828,-21.41699981689453 88.72699737548828,-21.41699981689453 88.72699737548828,-21.41699981689453 C88.72699737548828,-21.41699981689453 88.72699737548828,21.41699981689453 88.72699737548828,21.41699981689453z"></path></g></g><g opacity="1" transform="matrix(0,0,0,1,1209.6510009765625,0)"><g opacity="1" transform="matrix(1,0,0,1,1255.5450439453125,1159.8680419921875)"><path fill="rgb(255,255,255)" fill-opacity="1" d=" M45.893001556396484,21.41699981689453 C45.893001556396484,21.41699981689453 -45.893001556396484,21.41699981689453 -45.893001556396484,21.41699981689453 C-45.893001556396484,21.41699981689453 -45.893001556396484,-21.41699981689453 -45.893001556396484,-21.41699981689453 C-45.893001556396484,-21.41699981689453 45.893001556396484,-21.41699981689453 45.893001556396484,-21.41699981689453 C45.893001556396484,-21.41699981689453 45.893001556396484,21.41699981689453 45.893001556396484,21.41699981689453z"></path></g></g><g opacity="1" transform="matrix(0,0,0,1,1322.85595703125,0)"><g opacity="1" transform="matrix(1,0,0,1,1434.529052734375,1159.8680419921875)"><path fill="rgb(226,245,112)" fill-opacity="1" d=" M111.6729965209961,21.41699981689453 C111.6729965209961,21.41699981689453 -111.6729965209961,21.41699981689453 -111.6729965209961,21.41699981689453 C-111.6729965209961,21.41699981689453 -111.6729965209961,-21.41699981689453 -111.6729965209961,-21.41699981689453 C-111.6729965209961,-21.41699981689453 111.6729965209961,-21.41699981689453 111.6729965209961,-21.41699981689453 C111.6729965209961,-21.41699981689453 111.6729965209961,21.41699981689453 111.6729965209961,21.41699981689453z"></path></g></g><g opacity="1" transform="matrix(0,0,0,1,1564.5570068359375,0)"><g opacity="1" transform="matrix(1,0,0,1,1662.4610595703125,1159.8680419921875)"><path fill="rgb(17,17,17)" fill-opacity="1" d=" M97.90399932861328,21.41699981689453 C97.90399932861328,21.41699981689453 -97.90399932861328,21.41699981689453 -97.90399932861328,21.41699981689453 C-97.90399932861328,21.41699981689453 -97.90399932861328,-21.41699981689453 -97.90399932861328,-21.41699981689453 C-97.90399932861328,-21.41699981689453 97.90399932861328,-21.41699981689453 97.90399932861328,-21.41699981689453 C97.90399932861328,-21.41699981689453 97.90399932861328,21.41699981689453 97.90399932861328,21.41699981689453z"></path></g></g><g opacity="1" transform="matrix(0,0,0,1,1209.6510009765625,0)"><g opacity="1" transform="matrix(1,0,0,1,1307.5560302734375,1236.3580322265625)"><path fill="rgb(17,17,17)" fill-opacity="1" d=" M97.90499877929688,21.41699981689453 C97.90499877929688,21.41699981689453 -97.90499877929688,21.41699981689453 -97.90499877929688,21.41699981689453 C-97.90499877929688,21.41699981689453 -97.90499877929688,-21.41699981689453 -97.90499877929688,-21.41699981689453 C-97.90499877929688,-21.41699981689453 97.90499877929688,-21.41699981689453 97.90499877929688,-21.41699981689453 C97.90499877929688,-21.41699981689453 97.90499877929688,21.41699981689453 97.90499877929688,21.41699981689453z"></path></g></g><g opacity="1" transform="matrix(0,0,0,1,1423.8170166015625,0)"><g opacity="1" transform="matrix(1,0,0,1,1533.9599609375,1236.3580322265625)"><path fill="rgb(17,17,17)" fill-opacity="1" d=" M110.14299774169922,21.41699981689453 C110.14299774169922,21.41699981689453 -110.14299774169922,21.41699981689453 -110.14299774169922,21.41699981689453 C-110.14299774169922,21.41699981689453 -110.14299774169922,-21.41699981689453 -110.14299774169922,-21.41699981689453 C-110.14299774169922,-21.41699981689453 110.14299774169922,-21.41699981689453 110.14299774169922,-21.41699981689453 C110.14299774169922,-21.41699981689453 110.14299774169922,21.41699981689453 110.14299774169922,21.41699981689453z"></path></g></g><g opacity="1" transform="matrix(0,0,0,1,1671.6400146484375,0)"><g opacity="1" transform="matrix(1,0,0,1,1716.0040283203125,1236.3580322265625)"><path fill="rgb(255,255,255)" fill-opacity="1" d=" M44.36399841308594,21.41699981689453 C44.36399841308594,21.41699981689453 -44.36399841308594,21.41699981689453 -44.36399841308594,21.41699981689453 C-44.36399841308594,21.41699981689453 -44.36399841308594,-21.41699981689453 -44.36399841308594,-21.41699981689453 C-44.36399841308594,-21.41699981689453 44.36399841308594,-21.41699981689453 44.36399841308594,-21.41699981689453 C44.36399841308594,-21.41699981689453 44.36399841308594,21.41699981689453 44.36399841308594,21.41699981689453z"></path></g></g></g><g mask="url(#__lottie_element_1523_1)" style="display: block;"><g transform="matrix(-0.6933350563049316,0,0,0.6933350563049316,1697.302734375,60.33356857299805)" opacity="1"><g opacity="1" transform="matrix(1,0,0,1,0,0)"><g opacity="1" transform="matrix(1,0,0,1,1422.2889404296875,985.47998046875)"><path fill="rgb(17,17,17)" fill-opacity="1" d=" M212.63699340820312,21.41699981689453 C212.63699340820312,21.41699981689453 -212.63699340820312,21.41699981689453 -212.63699340820312,21.41699981689453 C-212.63699340820312,21.41699981689453 -212.63699340820312,-21.41699981689453 -212.63699340820312,-21.41699981689453 C-212.63699340820312,-21.41699981689453 212.63699340820312,-21.41699981689453 212.63699340820312,-21.41699981689453 C212.63699340820312,-21.41699981689453 212.63699340820312,21.41699981689453 212.63699340820312,21.41699981689453z"></path></g></g><g opacity="1" transform="matrix(1,0,0,1,0,0)"><g opacity="1" transform="matrix(1,0,0,1,1298.3780517578125,1083.385986328125)"><path fill="rgb(17,17,17)" fill-opacity="1" d=" M88.72699737548828,21.41699981689453 C88.72699737548828,21.41699981689453 -88.72699737548828,21.41699981689453 -88.72699737548828,21.41699981689453 C-88.72699737548828,21.41699981689453 -88.72699737548828,-21.41699981689453 -88.72699737548828,-21.41699981689453 C-88.72699737548828,-21.41699981689453 88.72699737548828,-21.41699981689453 88.72699737548828,-21.41699981689453 C88.72699737548828,-21.41699981689453 88.72699737548828,21.41699981689453 88.72699737548828,21.41699981689453z"></path></g></g><g opacity="1" transform="matrix(1,0,0,1,0,0)"><g opacity="1" transform="matrix(1,0,0,1,1255.5450439453125,1159.8680419921875)"><path fill="rgb(255,255,255)" fill-opacity="1" d=" M45.893001556396484,21.41699981689453 C45.893001556396484,21.41699981689453 -45.893001556396484,21.41699981689453 -45.893001556396484,21.41699981689453 C-45.893001556396484,21.41699981689453 -45.893001556396484,-21.41699981689453 -45.893001556396484,-21.41699981689453 C-45.893001556396484,-21.41699981689453 45.893001556396484,-21.41699981689453 45.893001556396484,-21.41699981689453 C45.893001556396484,-21.41699981689453 45.893001556396484,21.41699981689453 45.893001556396484,21.41699981689453z"></path></g></g><g opacity="1" transform="matrix(1,0,0,1,0,0)"><g opacity="1" transform="matrix(1,0,0,1,1434.529052734375,1159.8680419921875)"><path fill="rgb(226,245,112)" fill-opacity="1" d=" M111.6729965209961,21.41699981689453 C111.6729965209961,21.41699981689453 -111.6729965209961,21.41699981689453 -111.6729965209961,21.41699981689453 C-111.6729965209961,21.41699981689453 -111.6729965209961,-21.41699981689453 -111.6729965209961,-21.41699981689453 C-111.6729965209961,-21.41699981689453 111.6729965209961,-21.41699981689453 111.6729965209961,-21.41699981689453 C111.6729965209961,-21.41699981689453 111.6729965209961,21.41699981689453 111.6729965209961,21.41699981689453z"></path></g></g><g opacity="1" transform="matrix(1,0,0,1,0,0)"><g opacity="1" transform="matrix(1,0,0,1,1662.4610595703125,1159.8680419921875)"><path fill="rgb(17,17,17)" fill-opacity="1" d=" M97.90399932861328,21.41699981689453 C97.90399932861328,21.41699981689453 -97.90399932861328,21.41699981689453 -97.90399932861328,21.41699981689453 C-97.90399932861328,21.41699981689453 -97.90399932861328,-21.41699981689453 -97.90399932861328,-21.41699981689453 C-97.90399932861328,-21.41699981689453 97.90399932861328,-21.41699981689453 97.90399932861328,-21.41699981689453 C97.90399932861328,-21.41699981689453 97.90399932861328,21.41699981689453 97.90399932861328,21.41699981689453z"></path></g></g><g opacity="1" transform="matrix(1,0,0,1,0,0)"><g opacity="1" transform="matrix(1,0,0,1,1307.5560302734375,1236.3580322265625)"><path fill="rgb(17,17,17)" fill-opacity="1" d=" M97.90499877929688,21.41699981689453 C97.90499877929688,21.41699981689453 -97.90499877929688,21.41699981689453 -97.90499877929688,21.41699981689453 C-97.90499877929688,21.41699981689453 -97.90499877929688,-21.41699981689453 -97.90499877929688,-21.41699981689453 C-97.90499877929688,-21.41699981689453 97.90499877929688,-21.41699981689453 97.90499877929688,-21.41699981689453 C97.90499877929688,-21.41699981689453 97.90499877929688,21.41699981689453 97.90499877929688,21.41699981689453z"></path></g></g><g opacity="1" transform="matrix(1,0,0,1,0,0)"><g opacity="1" transform="matrix(1,0,0,1,1533.9599609375,1236.3580322265625)"><path fill="rgb(17,17,17)" fill-opacity="1" d=" M110.14299774169922,21.41699981689453 C110.14299774169922,21.41699981689453 -110.14299774169922,21.41699981689453 -110.14299774169922,21.41699981689453 C-110.14299774169922,21.41699981689453 -110.14299774169922,-21.41699981689453 -110.14299774169922,-21.41699981689453 C-110.14299774169922,-21.41699981689453 110.14299774169922,-21.41699981689453 110.14299774169922,-21.41699981689453 C110.14299774169922,-21.41699981689453 110.14299774169922,21.41699981689453 110.14299774169922,21.41699981689453z"></path></g></g><g opacity="1" transform="matrix(1,0,0,1,0,0)"><g opacity="1" transform="matrix(1,0,0,1,1716.0040283203125,1236.3580322265625)"><path fill="rgb(255,255,255)" fill-opacity="1" d=" M44.36399841308594,21.41699981689453 C44.36399841308594,21.41699981689453 -44.36399841308594,21.41699981689453 -44.36399841308594,21.41699981689453 C-44.36399841308594,21.41699981689453 -44.36399841308594,-21.41699981689453 -44.36399841308594,-21.41699981689453 C-44.36399841308594,-21.41699981689453 44.36399841308594,-21.41699981689453 44.36399841308594,-21.41699981689453 C44.36399841308594,-21.41699981689453 44.36399841308594,21.41699981689453 44.36399841308594,21.41699981689453z"></path></g></g></g></g></g></svg>
